<mxfile host="app.diagrams.net" modified="2024-05-16T01:08:31.107Z" agent="Mozilla/5.0 (Windows NT 10.0; Win64; x64) AppleWebKit/537.36 (KHTML, like Gecko) Chrome/124.0.0.0 Safari/537.36 Edg/124.0.0.0" version="24.4.0" etag="A7Eo5ZIEs_kJQetxmU-X" type="github">
  <diagram name="第 1 页" id="9jQkeUeQcz0g_0dStrUw">
    <mxGraphModel>
      <root>
        <mxCell id="0" />
        <mxCell id="1" parent="0" />
      </root>
    </mxGraphModel>
  </diagram>
</mxfile>
